<?xml version="1.0" standalone="no"?><!DOCTYPE svg PUBLIC "-//W3C//DTD SVG 1.1//EN" "http://www.w3.org/Graphics/SVG/1.1/DTD/svg11.dtd"><svg t="1604887797183" class="icon" viewBox="0 0 1069 1024" version="1.1" xmlns="http://www.w3.org/2000/svg" p-id="3603" xmlns:xlink="http://www.w3.org/1999/xlink" width="208.7890625" height="200"><defs><style type="text/css"></style></defs><path d="M534.588235 13.748706L1056.481882 338.823529l-145.061647 90.337883 145.061647 90.368-136.854588 85.217882 136.854588 85.232941L534.588235 1015.085176 12.694588 689.995294l136.83953-85.248L12.694588 519.529412l145.061647-90.368L12.694588 338.823529 534.588235 13.748706z m342.317177 617.607529L534.588235 844.604235 192.256 631.356235l-94.117647 58.624L534.588235 961.837176 971.038118 689.995294l-94.117647-58.624z m-8.222118-175.585882L534.588235 663.898353 200.478118 455.770353l-102.324706 63.744L534.588235 791.371294 971.023059 519.529412l-102.339765-63.744zM534.588235 66.951529L98.153412 338.823529l102.324706 63.744 1.069176-0.662588 1.355294 2.18353L534.588235 610.680471l436.434824-271.872L534.588235 66.951529z" p-id="3604"></path></svg>